<svg width="109" height="59" viewBox="0 0 109 59" fill="none" xmlns="http://www.w3.org/2000/svg">
<path d="M8.70974 55.6459V56.6H1.36955V45.6744H8.57125V46.6284H2.44673V50.5678H7.78645V51.4757H2.44673V55.6459H8.70974ZM17.0728 47.721C16.9189 47.5466 16.7394 47.3927 16.5342 47.2593C16.329 47.1157 16.0982 46.9926 15.8417 46.89C15.5852 46.7874 15.3082 46.7054 15.0107 46.6438C14.7235 46.5823 14.4157 46.5515 14.0874 46.5515C13.1334 46.5515 12.4306 46.7361 11.9793 47.1055C11.5381 47.4645 11.3176 47.9569 11.3176 48.5827C11.3176 49.0136 11.4202 49.3521 11.6253 49.5984C11.8408 49.8446 12.1742 50.0446 12.6256 50.1985C13.077 50.3524 13.6514 50.5114 14.349 50.6755C15.1287 50.8397 15.8007 51.0346 16.3649 51.2603C16.9291 51.486 17.3651 51.7937 17.6729 52.1836C17.9807 52.5632 18.1346 53.0812 18.1346 53.7378C18.1346 54.2405 18.0371 54.6765 17.8422 55.0458C17.6473 55.4151 17.3754 55.7229 17.0266 55.9691C16.6778 56.2153 16.2623 56.4 15.7802 56.5231C15.298 56.6359 14.7697 56.6923 14.1952 56.6923C13.6309 56.6923 13.0872 56.6359 12.564 56.5231C12.0511 56.4 11.5638 56.2256 11.1021 55.9999C10.6405 55.7639 10.2096 55.4664 9.80952 55.1073L10.3481 54.2302C10.543 54.4354 10.7738 54.6303 11.0406 54.815C11.3176 54.9894 11.6202 55.1484 11.9485 55.292C12.287 55.4356 12.6461 55.5485 13.0257 55.6305C13.4155 55.7024 13.8156 55.7383 14.2259 55.7383C15.0979 55.7383 15.775 55.5793 16.2572 55.2612C16.7496 54.9432 16.9958 54.4713 16.9958 53.8455C16.9958 53.3941 16.8727 53.0351 16.6265 52.7683C16.3803 52.4913 16.011 52.2657 15.5186 52.0913C15.0261 51.9169 14.4209 51.7476 13.7027 51.5834C12.9436 51.409 12.3024 51.2141 11.7792 50.9987C11.256 50.7833 10.861 50.5011 10.5943 50.1523C10.3378 49.7933 10.2096 49.3214 10.2096 48.7366C10.2096 48.0595 10.3738 47.4902 10.702 47.0285C11.0406 46.5566 11.5022 46.2027 12.087 45.9667C12.6717 45.7205 13.3437 45.5974 14.1028 45.5974C14.585 45.5974 15.0313 45.6487 15.4416 45.7513C15.8622 45.8436 16.2469 45.9821 16.5957 46.1668C16.9548 46.3514 17.2882 46.5823 17.596 46.8593L17.0728 47.721ZM27.7744 46.6284H23.8812V56.6H22.804V46.6284H18.9108V45.6744H27.7744V46.6284ZM31.7445 45.6744H32.6524L37.1919 56.6H36.0532L34.6375 53.1838H29.7286L28.3283 56.6H27.1742L31.7445 45.6744ZM34.3913 52.3375L32.1907 46.9362L29.9595 52.3375H34.3913ZM45.4619 46.6284H41.5687V56.6H40.4915V46.6284H36.5983V45.6744H45.4619V46.6284ZM54.4386 55.6459V56.6H47.0985V45.6744H54.3002V46.6284H48.1756V50.5678H53.5154V51.4757H48.1756V55.6459H54.4386ZM62.8017 47.721C62.6478 47.5466 62.4683 47.3927 62.2631 47.2593C62.0579 47.1157 61.8271 46.9926 61.5706 46.89C61.3141 46.7874 61.0372 46.7054 60.7396 46.6438C60.4524 46.5823 60.1446 46.5515 59.8164 46.5515C58.8623 46.5515 58.1596 46.7361 57.7082 47.1055C57.267 47.4645 57.0465 47.9569 57.0465 48.5827C57.0465 49.0136 57.1491 49.3521 57.3542 49.5984C57.5697 49.8446 57.9031 50.0446 58.3545 50.1985C58.8059 50.3524 59.3804 50.5114 60.078 50.6755C60.8576 50.8397 61.5296 51.0346 62.0938 51.2603C62.658 51.486 63.094 51.7937 63.4018 52.1836C63.7096 52.5632 63.8635 53.0812 63.8635 53.7378C63.8635 54.2405 63.766 54.6765 63.5711 55.0458C63.3762 55.4151 63.1043 55.7229 62.7555 55.9691C62.4067 56.2153 61.9912 56.4 61.5091 56.5231C61.0269 56.6359 60.4986 56.6923 59.9241 56.6923C59.3598 56.6923 58.8161 56.6359 58.2929 56.5231C57.78 56.4 57.2927 56.2256 56.831 55.9999C56.3694 55.7639 55.9385 55.4664 55.5384 55.1073L56.077 54.2302C56.2719 54.4354 56.5028 54.6303 56.7695 54.815C57.0465 54.9894 57.3491 55.1484 57.6774 55.292C58.0159 55.4356 58.375 55.5485 58.7546 55.6305C59.1444 55.7024 59.5445 55.7383 59.9548 55.7383C60.8268 55.7383 61.5039 55.5793 61.9861 55.2612C62.4785 54.9432 62.7247 54.4713 62.7247 53.8455C62.7247 53.3941 62.6016 53.0351 62.3554 52.7683C62.1092 52.4913 61.7399 52.2657 61.2475 52.0913C60.755 51.9169 60.1498 51.7476 59.4316 51.5834C58.6725 51.409 58.0313 51.2141 57.5081 50.9987C56.9849 50.7833 56.59 50.5011 56.3232 50.1523C56.0668 49.7933 55.9385 49.3214 55.9385 48.7366C55.9385 48.0595 56.1027 47.4902 56.4309 47.0285C56.7695 46.5566 57.2311 46.2027 57.8159 45.9667C58.4006 45.7205 59.0726 45.5974 59.8317 45.5974C60.3139 45.5974 60.7602 45.6487 61.1705 45.7513C61.5911 45.8436 61.9758 45.9821 62.3246 46.1668C62.6837 46.3514 63.0171 46.5823 63.3249 46.8593L62.8017 47.721Z" fill="#4B5563"/>
<path d="M100.352 7.03847C99.9723 7.03847 99.626 6.96153 99.3131 6.80765C99.0003 6.64864 98.731 6.43833 98.5053 6.17673C98.2796 5.91513 98.1052 5.62019 97.9821 5.29191C97.859 4.95849 97.7974 4.61739 97.7974 4.26859C97.7974 3.9044 97.8615 3.55816 97.9898 3.22988C98.118 2.89647 98.2975 2.60153 98.5283 2.34506C98.7643 2.08346 99.0362 1.87828 99.3439 1.72953C99.6568 1.57565 99.9954 1.49871 100.36 1.49871C100.744 1.49871 101.09 1.57821 101.398 1.73722C101.711 1.89624 101.98 2.10911 102.206 2.37584C102.432 2.64256 102.606 2.94007 102.729 3.26835C102.852 3.59664 102.914 3.93005 102.914 4.26859C102.914 4.63791 102.85 4.98927 102.722 5.32268C102.593 5.65096 102.411 5.94591 102.175 6.20751C101.945 6.46398 101.673 6.66659 101.36 6.81534C101.052 6.96409 100.716 7.03847 100.352 7.03847ZM100.36 6.67685C100.683 6.67685 100.978 6.6076 101.244 6.46911C101.511 6.33061 101.739 6.14595 101.929 5.91513C102.119 5.68431 102.263 5.42784 102.36 5.14572C102.463 4.85847 102.514 4.56609 102.514 4.26859C102.514 3.95569 102.46 3.65562 102.352 3.36838C102.25 3.08113 102.101 2.82466 101.906 2.59896C101.711 2.37327 101.48 2.19374 101.214 2.06038C100.952 1.92701 100.667 1.86033 100.36 1.86033C100.031 1.86033 99.7338 1.92958 99.467 2.06807C99.2003 2.20656 98.972 2.39122 98.7823 2.62205C98.5976 2.85287 98.4514 3.11191 98.3437 3.39915C98.2411 3.68127 98.1898 3.97108 98.1898 4.26859C98.1898 4.58148 98.2437 4.88155 98.3514 5.1688C98.4591 5.45605 98.6079 5.71252 98.7976 5.93821C98.9926 6.16391 99.2208 6.34344 99.4824 6.4768C99.7491 6.61016 100.042 6.67685 100.36 6.67685ZM101.006 5.41501H101.414L102.729 7H102.322L101.006 5.41501ZM105.511 1.53718H105.849L108.157 7H107.742L106.98 5.19958H104.372L103.61 7H103.187L105.511 1.53718ZM106.872 4.87642L105.68 2.01421L104.464 4.87642H106.872Z" fill="#4B5563"/>
<path d="M8.13012 2.12423H11.4129L13.4904 8.15129L15.5934 2.12423H18.8506L15.7216 10.4082L18.0299 16.2045L23.1849 2.07294H27.032L19.7482 20.2823H16.6962L13.4904 12.6395L10.3101 20.2823H7.25812L0 2.07294H3.79576L8.97647 16.2045L11.2334 10.4082L8.13012 2.12423ZM41.5414 17.1791V20.2823H28.8974V2.07294H41.3106V5.17623H32.4367V9.56188H40.1052V12.4343H32.4367V17.1791H41.5414ZM55.1494 6.84329C55.0297 6.7236 54.8074 6.56117 54.4826 6.35599C54.1748 6.15082 53.7901 5.95419 53.3284 5.76611C52.8839 5.57803 52.3966 5.4156 51.8666 5.27882C51.3365 5.12494 50.7979 5.04799 50.2508 5.04799C49.2933 5.04799 48.5666 5.22752 48.0708 5.58658C47.5921 5.94564 47.3527 6.45003 47.3527 7.09976C47.3527 7.5956 47.5066 7.98886 47.8143 8.27952C48.1221 8.57019 48.5837 8.81811 49.1993 9.02329C49.8148 9.22847 50.5842 9.45074 51.5075 9.69011C52.7044 9.98078 53.7388 10.3398 54.6108 10.7673C55.4999 11.1776 56.1753 11.7248 56.6369 12.4087C57.1157 13.0755 57.355 13.9646 57.355 15.076C57.355 16.0506 57.1755 16.8884 56.8164 17.5894C56.4574 18.2733 55.9615 18.829 55.3289 19.2565C54.6963 19.6839 53.9782 20.0002 53.1746 20.2054C52.371 20.3935 51.5161 20.4875 50.6099 20.4875C49.7037 20.4875 48.7975 20.3935 47.8913 20.2054C46.9851 20.0173 46.1131 19.7523 45.2753 19.4103C44.4375 19.0513 43.6681 18.6238 42.967 18.128L44.5315 15.076C44.6854 15.2299 44.959 15.4351 45.3522 15.6915C45.7455 15.9309 46.2242 16.1788 46.7884 16.4353C47.3527 16.6747 47.9682 16.8798 48.635 17.0508C49.3019 17.2218 49.9772 17.3073 50.6612 17.3073C51.6186 17.3073 52.3453 17.1449 52.8412 16.82C53.337 16.4951 53.5849 16.0335 53.5849 15.4351C53.5849 14.8879 53.3883 14.4605 52.995 14.1527C52.6018 13.8449 52.0546 13.5799 51.3536 13.3576C50.6526 13.1183 49.8234 12.8618 48.8659 12.5882C47.7203 12.2634 46.7628 11.9043 45.9934 11.5111C45.224 11.1007 44.6512 10.5878 44.275 9.97223C43.8989 9.3567 43.7108 8.58729 43.7108 7.664C43.7108 6.41584 44.0015 5.37286 44.5828 4.53505C45.1812 3.68015 45.9848 3.03898 46.9936 2.61153C48.0024 2.16698 49.1223 1.9447 50.3534 1.9447C51.2083 1.9447 52.0119 2.03874 52.7642 2.22682C53.5336 2.4149 54.2517 2.66282 54.9186 2.97058C55.5854 3.27835 56.1838 3.61176 56.7139 3.97082L55.1494 6.84329ZM73.6481 5.17623H67.8263V20.2823H64.3126V5.17623H58.4907V2.07294H73.6481V5.17623ZM1.89788 41.2823V23.0729H5.43718V38.1791H14.7214V41.2823H1.89788ZM21.8252 23.0729H25.4158L32.1097 41.2823H28.4678L26.7751 36.7428H20.4147L18.7476 41.2823H15.1057L21.8252 23.0729ZM26.134 34.2551L23.6205 26.7405L21.0045 34.2551H26.134ZM40.9716 41.4106C39.7918 41.4106 38.6719 41.1712 37.6118 40.6925C36.5688 40.2137 35.6455 39.5554 34.8419 38.7176C34.0554 37.8627 33.4399 36.8711 32.9953 35.7426C32.5508 34.6141 32.3285 33.3916 32.3285 32.0751C32.3285 30.8269 32.5508 29.6557 32.9953 28.5614C33.4399 27.45 34.064 26.4754 34.8676 25.6376C35.6712 24.7998 36.6116 24.1416 37.6888 23.6628C38.7659 23.1841 39.9371 22.9447 41.2024 22.9447C42.9122 22.9447 44.3741 23.3123 45.588 24.0475C46.8191 24.7656 47.7424 25.7231 48.3579 26.92L45.7163 28.8692C45.2546 27.963 44.6049 27.2705 43.7671 26.7918C42.9464 26.313 42.0488 26.0736 41.0742 26.0736C40.3048 26.0736 39.6037 26.2361 38.9711 26.5609C38.3385 26.8858 37.7913 27.3303 37.3297 27.8946C36.868 28.4588 36.509 29.1085 36.2525 29.8438C36.0131 30.579 35.8935 31.3569 35.8935 32.1776C35.8935 33.0496 36.0217 33.8533 36.2782 34.5885C36.5517 35.3237 36.9279 35.9649 37.4066 36.512C37.9025 37.0591 38.4753 37.4951 39.125 37.82C39.7747 38.1278 40.4928 38.2816 41.2793 38.2816C42.2026 38.2816 43.0832 38.0423 43.921 37.5635C44.7759 37.0848 45.571 36.3838 46.3062 35.4605V38.9485C44.7844 40.5899 43.0062 41.4106 40.9716 41.4106ZM46.0497 34.5115H42.3822V31.9212H48.9735V41.2823H46.0497V34.5115ZM59.7609 41.4106C58.4272 41.4106 57.2132 41.1541 56.119 40.6412C55.0418 40.1282 54.11 39.4358 53.3234 38.5638C52.554 37.6747 51.9556 36.683 51.5281 35.5887C51.1007 34.4773 50.887 33.3403 50.887 32.1776C50.887 30.9637 51.1092 29.8096 51.5538 28.7153C52.0154 27.6039 52.6395 26.6208 53.426 25.7659C54.2296 24.8939 55.17 24.21 56.2472 23.7141C57.3415 23.2012 58.5383 22.9447 59.8378 22.9447C61.1543 22.9447 62.3512 23.2097 63.4284 23.7398C64.5227 24.2698 65.4545 24.9794 66.2239 25.8685C66.9933 26.7576 67.5918 27.7493 68.0192 28.8435C68.4467 29.9378 68.6604 31.0663 68.6604 32.2289C68.6604 33.4258 68.4381 34.5799 67.9936 35.6913C67.549 36.7856 66.9249 37.7687 66.1213 38.6407C65.3348 39.4956 64.3944 40.171 63.3001 40.6668C62.223 41.1627 61.0432 41.4106 59.7609 41.4106ZM54.4776 32.1776C54.4776 32.9642 54.5972 33.725 54.8366 34.4602C55.076 35.1954 55.418 35.8537 55.8625 36.4351C56.3241 36.9993 56.8798 37.4524 57.5296 37.7943C58.1964 38.1192 58.9487 38.2816 59.7865 38.2816C60.6414 38.2816 61.4023 38.1107 62.0691 37.7687C62.7359 37.4096 63.2916 36.9394 63.7361 36.3581C64.1807 35.7597 64.5141 35.1014 64.7364 34.3833C64.9758 33.6481 65.0954 32.9129 65.0954 32.1776C65.0954 31.3911 64.9672 30.6388 64.7107 29.9207C64.4714 29.1855 64.1209 28.5358 63.6592 27.9715C63.2147 27.3902 62.659 26.9371 61.9921 26.6122C61.3424 26.2703 60.6072 26.0993 59.7865 26.0993C58.9145 26.0993 58.1451 26.2788 57.4783 26.6379C56.8285 26.9798 56.2814 27.4415 55.8369 28.0228C55.3923 28.6042 55.0503 29.2539 54.811 29.972C54.5887 30.6901 54.4776 31.4253 54.4776 32.1776ZM79.1464 41.4106C77.8128 41.4106 76.5988 41.1541 75.5045 40.6412C74.4274 40.1282 73.4955 39.4358 72.709 38.5638C71.9396 37.6747 71.3412 36.683 70.9137 35.5887C70.4863 34.4773 70.2725 33.3403 70.2725 32.1776C70.2725 30.9637 70.4948 29.8096 70.9394 28.7153C71.401 27.6039 72.0251 26.6208 72.8116 25.7659C73.6152 24.8939 74.5556 24.21 75.6328 23.7141C76.727 23.2012 77.9239 22.9447 79.2234 22.9447C80.5399 22.9447 81.7368 23.2097 82.8139 23.7398C83.9082 24.2698 84.8401 24.9794 85.6095 25.8685C86.3789 26.7576 86.9773 27.7493 87.4048 28.8435C87.8322 29.9378 88.0459 31.0663 88.0459 32.2289C88.0459 33.4258 87.8237 34.5799 87.3791 35.6913C86.9346 36.7856 86.3105 37.7687 85.5069 38.6407C84.7204 39.4956 83.78 40.171 82.6857 40.6668C81.6085 41.1627 80.4288 41.4106 79.1464 41.4106ZM73.8631 32.1776C73.8631 32.9642 73.9828 33.725 74.2222 34.4602C74.4616 35.1954 74.8035 35.8537 75.2481 36.4351C75.7097 36.9993 76.2654 37.4524 76.9151 37.7943C77.5819 38.1192 78.3343 38.2816 79.1721 38.2816C80.027 38.2816 80.7878 38.1107 81.4547 37.7687C82.1215 37.4096 82.6772 36.9394 83.1217 36.3581C83.5663 35.7597 83.8997 35.1014 84.1219 34.3833C84.3613 33.6481 84.481 32.9129 84.481 32.1776C84.481 31.3911 84.3528 30.6388 84.0963 29.9207C83.8569 29.1855 83.5064 28.5358 83.0448 27.9715C82.6002 27.3902 82.0445 26.9371 81.3777 26.6122C80.728 26.2703 79.9928 26.0993 79.1721 26.0993C78.3001 26.0993 77.5307 26.2788 76.8638 26.6379C76.2141 26.9798 75.667 27.4415 75.2224 28.0228C74.7779 28.6042 74.4359 29.2539 74.1965 29.972C73.9743 30.6901 73.8631 31.4253 73.8631 32.1776ZM94.3002 29.5873V41.2823H90.7609V23.0729H93.5821L102.995 35.0758V23.0986H106.534V41.2823H103.584L94.3002 29.5873Z" fill="#4B5563"/>
</svg>
