<svg width="85" height="46" viewBox="0 0 85 46" fill="none" xmlns="http://www.w3.org/2000/svg">
<path d="M6.792 43.256V44H1.068V35.48H6.684V36.224H1.908V39.296H6.072V40.004H1.908V43.256H6.792ZM13.3136 37.076C13.1936 36.94 13.0536 36.82 12.8936 36.716C12.7336 36.604 12.5536 36.508 12.3536 36.428C12.1536 36.348 11.9376 36.284 11.7056 36.236C11.4816 36.188 11.2416 36.164 10.9856 36.164C10.2416 36.164 9.69363 36.308 9.34163 36.596C8.99763 36.876 8.82563 37.26 8.82563 37.748C8.82563 38.084 8.90563 38.348 9.06563 38.54C9.23363 38.732 9.49363 38.888 9.84563 39.008C10.1976 39.128 10.6456 39.252 11.1896 39.38C11.7976 39.508 12.3216 39.66 12.7616 39.836C13.2016 40.012 13.5416 40.252 13.7816 40.556C14.0216 40.852 14.1416 41.256 14.1416 41.768C14.1416 42.16 14.0656 42.5 13.9136 42.788C13.7616 43.076 13.5496 43.316 13.2776 43.508C13.0056 43.7 12.6816 43.844 12.3056 43.94C11.9296 44.028 11.5176 44.072 11.0696 44.072C10.6296 44.072 10.2056 44.028 9.79763 43.94C9.39763 43.844 9.01763 43.708 8.65763 43.532C8.29763 43.348 7.96163 43.116 7.64963 42.836L8.06963 42.152C8.22163 42.312 8.40163 42.464 8.60963 42.608C8.82563 42.744 9.06163 42.868 9.31763 42.98C9.58163 43.092 9.86163 43.18 10.1576 43.244C10.4616 43.3 10.7736 43.328 11.0936 43.328C11.7736 43.328 12.3016 43.204 12.6776 42.956C13.0616 42.708 13.2536 42.34 13.2536 41.852C13.2536 41.5 13.1576 41.22 12.9656 41.012C12.7736 40.796 12.4856 40.62 12.1016 40.484C11.7176 40.348 11.2456 40.216 10.6856 40.088C10.0936 39.952 9.59363 39.8 9.18563 39.632C8.77763 39.464 8.46963 39.244 8.26163 38.972C8.06163 38.692 7.96163 38.324 7.96163 37.868C7.96163 37.34 8.08963 36.896 8.34563 36.536C8.60963 36.168 8.96963 35.892 9.42563 35.708C9.88163 35.516 10.4056 35.42 10.9976 35.42C11.3736 35.42 11.7216 35.46 12.0416 35.54C12.3696 35.612 12.6696 35.72 12.9416 35.864C13.2216 36.008 13.4816 36.188 13.7216 36.404L13.3136 37.076ZM21.659 36.224H18.623V44H17.783V36.224H14.747V35.48H21.659V36.224ZM24.7549 35.48H25.4629L29.0029 44H28.1149L27.0109 41.336H23.1829L22.0909 44H21.1909L24.7549 35.48ZM26.8189 40.676L25.1029 36.464L23.3629 40.676H26.8189ZM35.4519 36.224H32.4159V44H31.5759V36.224H28.5399V35.48H35.4519V36.224ZM42.4522 43.256V44H36.7282V35.48H42.3442V36.224H37.5682V39.296H41.7322V40.004H37.5682V43.256H42.4522ZM48.9738 37.076C48.8538 36.94 48.7138 36.82 48.5538 36.716C48.3938 36.604 48.2138 36.508 48.0138 36.428C47.8138 36.348 47.5978 36.284 47.3658 36.236C47.1418 36.188 46.9018 36.164 46.6458 36.164C45.9018 36.164 45.3538 36.308 45.0018 36.596C44.6578 36.876 44.4858 37.26 44.4858 37.748C44.4858 38.084 44.5658 38.348 44.7258 38.54C44.8938 38.732 45.1538 38.888 45.5058 39.008C45.8578 39.128 46.3058 39.252 46.8498 39.38C47.4578 39.508 47.9818 39.66 48.4218 39.836C48.8618 40.012 49.2018 40.252 49.4418 40.556C49.6818 40.852 49.8018 41.256 49.8018 41.768C49.8018 42.16 49.7258 42.5 49.5738 42.788C49.4218 43.076 49.2098 43.316 48.9378 43.508C48.6658 43.7 48.3418 43.844 47.9658 43.94C47.5898 44.028 47.1778 44.072 46.7298 44.072C46.2898 44.072 45.8658 44.028 45.4578 43.94C45.0578 43.844 44.6778 43.708 44.3178 43.532C43.9578 43.348 43.6218 43.116 43.3098 42.836L43.7298 42.152C43.8818 42.312 44.0618 42.464 44.2698 42.608C44.4858 42.744 44.7218 42.868 44.9778 42.98C45.2418 43.092 45.5218 43.18 45.8178 43.244C46.1218 43.3 46.4338 43.328 46.7538 43.328C47.4338 43.328 47.9618 43.204 48.3378 42.956C48.7218 42.708 48.9138 42.34 48.9138 41.852C48.9138 41.5 48.8178 41.22 48.6258 41.012C48.4338 40.796 48.1458 40.62 47.7618 40.484C47.3778 40.348 46.9058 40.216 46.3458 40.088C45.7538 39.952 45.2538 39.8 44.8458 39.632C44.4378 39.464 44.1298 39.244 43.9218 38.972C43.7218 38.692 43.6218 38.324 43.6218 37.868C43.6218 37.34 43.7498 36.896 44.0058 36.536C44.2698 36.168 44.6298 35.892 45.0858 35.708C45.5418 35.516 46.0658 35.42 46.6578 35.42C47.0338 35.42 47.3818 35.46 47.7018 35.54C48.0298 35.612 48.3298 35.72 48.6018 35.864C48.8818 36.008 49.1418 36.188 49.3818 36.404L48.9738 37.076Z" fill="#4B5563"/>
<path d="M78.256 6.03C77.96 6.03 77.69 5.97 77.446 5.85C77.202 5.726 76.992 5.562 76.816 5.358C76.64 5.154 76.504 4.924 76.408 4.668C76.312 4.408 76.264 4.142 76.264 3.87C76.264 3.586 76.314 3.316 76.414 3.06C76.514 2.8 76.654 2.57 76.834 2.37C77.018 2.166 77.23 2.006 77.47 1.89C77.714 1.77 77.978 1.71 78.262 1.71C78.562 1.71 78.832 1.772 79.072 1.896C79.316 2.02 79.526 2.186 79.702 2.394C79.878 2.602 80.014 2.834 80.11 3.09C80.206 3.346 80.254 3.606 80.254 3.87C80.254 4.158 80.204 4.432 80.104 4.692C80.004 4.948 79.862 5.178 79.678 5.382C79.498 5.582 79.286 5.74 79.042 5.856C78.802 5.972 78.54 6.03 78.256 6.03ZM78.262 5.748C78.514 5.748 78.744 5.694 78.952 5.586C79.16 5.478 79.338 5.334 79.486 5.154C79.634 4.974 79.746 4.774 79.822 4.554C79.902 4.33 79.942 4.102 79.942 3.87C79.942 3.626 79.9 3.392 79.816 3.168C79.736 2.944 79.62 2.744 79.468 2.568C79.316 2.392 79.136 2.252 78.928 2.148C78.724 2.044 78.502 1.992 78.262 1.992C78.006 1.992 77.774 2.046 77.566 2.154C77.358 2.262 77.18 2.406 77.032 2.586C76.888 2.766 76.774 2.968 76.69 3.192C76.61 3.412 76.57 3.638 76.57 3.87C76.57 4.114 76.612 4.348 76.696 4.572C76.78 4.796 76.896 4.996 77.044 5.172C77.196 5.348 77.374 5.488 77.578 5.592C77.786 5.696 78.014 5.748 78.262 5.748ZM78.766 4.764H79.084L80.11 6H79.792L78.766 4.764ZM82.2788 1.74H82.5428L84.3428 6H84.0188L83.4248 4.596H81.3908L80.7968 6H80.4668L82.2788 1.74ZM83.3408 4.344L82.4108 2.112L81.4628 4.344H83.3408Z" fill="#4B5563"/>
<path d="M6.34 1.84H8.9L10.52 6.54L12.16 1.84H14.7L12.26 8.3L14.06 12.82L18.08 1.8H21.08L15.4 16H13.02L10.52 10.04L8.04 16H5.66L0 1.8H2.96L7 12.82L8.76 8.3L6.34 1.84ZM32.3947 13.58V16H22.5347V1.8H32.2147V4.22H25.2947V7.64H31.2747V9.88H25.2947V13.58H32.3947ZM43.0064 5.52C42.9131 5.42667 42.7397 5.3 42.4864 5.14C42.2464 4.98 41.9464 4.82667 41.5864 4.68C41.2397 4.53333 40.8597 4.40667 40.4464 4.3C40.0331 4.18 39.6131 4.12 39.1864 4.12C38.4397 4.12 37.8731 4.26 37.4864 4.54C37.1131 4.82 36.9264 5.21333 36.9264 5.72C36.9264 6.10667 37.0464 6.41333 37.2864 6.64C37.5264 6.86667 37.8864 7.06 38.3664 7.22C38.8464 7.38 39.4464 7.55333 40.1664 7.74C41.0997 7.96667 41.9064 8.24667 42.5864 8.58C43.2797 8.9 43.8064 9.32667 44.1664 9.86C44.5397 10.38 44.7264 11.0733 44.7264 11.94C44.7264 12.7 44.5864 13.3533 44.3064 13.9C44.0264 14.4333 43.6397 14.8667 43.1464 15.2C42.6531 15.5333 42.0931 15.78 41.4664 15.94C40.8397 16.0867 40.1731 16.16 39.4664 16.16C38.7597 16.16 38.0531 16.0867 37.3464 15.94C36.6397 15.7933 35.9597 15.5867 35.3064 15.32C34.6531 15.04 34.0531 14.7067 33.5064 14.32L34.7264 11.94C34.8464 12.06 35.0597 12.22 35.3664 12.42C35.6731 12.6067 36.0464 12.8 36.4864 13C36.9264 13.1867 37.4064 13.3467 37.9264 13.48C38.4464 13.6133 38.9731 13.68 39.5064 13.68C40.2531 13.68 40.8197 13.5533 41.2064 13.3C41.5931 13.0467 41.7864 12.6867 41.7864 12.22C41.7864 11.7933 41.6331 11.46 41.3264 11.22C41.0197 10.98 40.5931 10.7733 40.0464 10.6C39.4997 10.4133 38.8531 10.2133 38.1064 10C37.2131 9.74667 36.4664 9.46667 35.8664 9.16C35.2664 8.84 34.8197 8.44 34.5264 7.96C34.2331 7.48 34.0864 6.88 34.0864 6.16C34.0864 5.18667 34.3131 4.37333 34.7664 3.72C35.2331 3.05333 35.8597 2.55333 36.6464 2.22C37.4331 1.87333 38.3064 1.7 39.2664 1.7C39.9331 1.7 40.5597 1.77333 41.1464 1.92C41.7464 2.06667 42.3064 2.26 42.8264 2.5C43.3464 2.74 43.8131 3 44.2264 3.28L43.0064 5.52ZM57.432 4.22H52.892V16H50.152V4.22H45.612V1.8H57.432V4.22ZM1.48 32V17.8H4.24V29.58H11.48V32H1.48ZM17.0197 17.8H19.8197L25.0397 32H22.1997L20.8797 28.46H15.9197L14.6197 32H11.7797L17.0197 17.8ZM20.3797 26.52L18.4197 20.66L16.3797 26.52H20.3797ZM31.9503 32.1C31.0303 32.1 30.157 31.9133 29.3303 31.54C28.517 31.1667 27.797 30.6533 27.1703 30C26.557 29.3333 26.077 28.56 25.7303 27.68C25.3836 26.8 25.2103 25.8467 25.2103 24.82C25.2103 23.8467 25.3836 22.9333 25.7303 22.08C26.077 21.2133 26.5636 20.4533 27.1903 19.8C27.817 19.1467 28.5503 18.6333 29.3903 18.26C30.2303 17.8867 31.1436 17.7 32.1303 17.7C33.4636 17.7 34.6036 17.9867 35.5503 18.56C36.5103 19.12 37.2303 19.8667 37.7103 20.8L35.6503 22.32C35.2903 21.6133 34.7836 21.0733 34.1303 20.7C33.4903 20.3267 32.7903 20.14 32.0303 20.14C31.4303 20.14 30.8836 20.2667 30.3903 20.52C29.897 20.7733 29.4703 21.12 29.1103 21.56C28.7503 22 28.4703 22.5067 28.2703 23.08C28.0836 23.6533 27.9903 24.26 27.9903 24.9C27.9903 25.58 28.0903 26.2067 28.2903 26.78C28.5036 27.3533 28.797 27.8533 29.1703 28.28C29.557 28.7067 30.0036 29.0467 30.5103 29.3C31.017 29.54 31.577 29.66 32.1903 29.66C32.9103 29.66 33.597 29.4733 34.2503 29.1C34.917 28.7267 35.537 28.18 36.1103 27.46V30.18C34.9236 31.46 33.537 32.1 31.9503 32.1ZM35.9103 26.72H33.0503V24.7H38.1903V32H35.9103V26.72ZM46.6025 32.1C45.5625 32.1 44.6158 31.9 43.7625 31.5C42.9225 31.1 42.1958 30.56 41.5825 29.88C40.9825 29.1867 40.5158 28.4133 40.1825 27.56C39.8492 26.6933 39.6825 25.8067 39.6825 24.9C39.6825 23.9533 39.8558 23.0533 40.2025 22.2C40.5625 21.3333 41.0492 20.5667 41.6625 19.9C42.2892 19.22 43.0225 18.6867 43.8625 18.3C44.7158 17.9 45.6492 17.7 46.6625 17.7C47.6892 17.7 48.6225 17.9067 49.4625 18.32C50.3158 18.7333 51.0425 19.2867 51.6425 19.98C52.2425 20.6733 52.7092 21.4467 53.0425 22.3C53.3758 23.1533 53.5425 24.0333 53.5425 24.94C53.5425 25.8733 53.3692 26.7733 53.0225 27.64C52.6758 28.4933 52.1892 29.26 51.5625 29.94C50.9492 30.6067 50.2158 31.1333 49.3625 31.52C48.5225 31.9067 47.6025 32.1 46.6025 32.1ZM42.4825 24.9C42.4825 25.5133 42.5758 26.1067 42.7625 26.68C42.9492 27.2533 43.2158 27.7667 43.5625 28.22C43.9225 28.66 44.3558 29.0133 44.8625 29.28C45.3825 29.5333 45.9692 29.66 46.6225 29.66C47.2892 29.66 47.8825 29.5267 48.4025 29.26C48.9225 28.98 49.3558 28.6133 49.7025 28.16C50.0492 27.6933 50.3092 27.18 50.4825 26.62C50.6692 26.0467 50.7625 25.4733 50.7625 24.9C50.7625 24.2867 50.6625 23.7 50.4625 23.14C50.2758 22.5667 50.0025 22.06 49.6425 21.62C49.2958 21.1667 48.8625 20.8133 48.3425 20.56C47.8358 20.2933 47.2625 20.16 46.6225 20.16C45.9425 20.16 45.3425 20.3 44.8225 20.58C44.3158 20.8467 43.8892 21.2067 43.5425 21.66C43.1958 22.1133 42.9292 22.62 42.7425 23.18C42.5692 23.74 42.4825 24.3133 42.4825 24.9ZM61.7197 32.1C60.6797 32.1 59.733 31.9 58.8797 31.5C58.0397 31.1 57.313 30.56 56.6997 29.88C56.0997 29.1867 55.633 28.4133 55.2997 27.56C54.9664 26.6933 54.7997 25.8067 54.7997 24.9C54.7997 23.9533 54.973 23.0533 55.3197 22.2C55.6797 21.3333 56.1664 20.5667 56.7797 19.9C57.4064 19.22 58.1397 18.6867 58.9797 18.3C59.833 17.9 60.7664 17.7 61.7797 17.7C62.8064 17.7 63.7397 17.9067 64.5797 18.32C65.433 18.7333 66.1597 19.2867 66.7597 19.98C67.3597 20.6733 67.8264 21.4467 68.1597 22.3C68.493 23.1533 68.6597 24.0333 68.6597 24.94C68.6597 25.8733 68.4864 26.7733 68.1397 27.64C67.793 28.4933 67.3064 29.26 66.6797 29.94C66.0664 30.6067 65.333 31.1333 64.4797 31.52C63.6397 31.9067 62.7197 32.1 61.7197 32.1ZM57.5997 24.9C57.5997 25.5133 57.693 26.1067 57.8797 26.68C58.0664 27.2533 58.333 27.7667 58.6797 28.22C59.0397 28.66 59.473 29.0133 59.9797 29.28C60.4997 29.5333 61.0864 29.66 61.7397 29.66C62.4064 29.66 62.9997 29.5267 63.5197 29.26C64.0397 28.98 64.473 28.6133 64.8197 28.16C65.1664 27.6933 65.4264 27.18 65.5997 26.62C65.7864 26.0467 65.8797 25.4733 65.8797 24.9C65.8797 24.2867 65.7797 23.7 65.5797 23.14C65.393 22.5667 65.1197 22.06 64.7597 21.62C64.413 21.1667 63.9797 20.8133 63.4597 20.56C62.953 20.2933 62.3797 20.16 61.7397 20.16C61.0597 20.16 60.4597 20.3 59.9397 20.58C59.433 20.8467 59.0064 21.2067 58.6597 21.66C58.313 22.1133 58.0464 22.62 57.8597 23.18C57.6864 23.74 57.5997 24.3133 57.5997 24.9ZM73.5369 22.88V32H70.7769V17.8H72.9769L80.3169 27.16V17.82H83.0769V32H80.7769L73.5369 22.88Z" fill="#4B5563"/>
</svg>
