<svg width="12" height="13" viewBox="0 0 12 13" fill="none" xmlns="http://www.w3.org/2000/svg">
<path d="M6 0.140869C6.55208 0.140869 7.08333 0.212484 7.59375 0.355713C8.10417 0.498942 8.58203 0.700765 9.02734 0.961182C9.47266 1.2216 9.8776 1.5341 10.2422 1.89868C10.6068 2.26326 10.9193 2.66821 11.1797 3.11353C11.4401 3.55884 11.6419 4.0367 11.7852 4.54712C11.9284 5.05754 12 5.58879 12 6.14087C12 6.69295 11.9284 7.2242 11.7852 7.73462C11.6419 8.24504 11.4401 8.7229 11.1797 9.16821C10.9193 9.61353 10.6068 10.0185 10.2422 10.3831C9.8776 10.7476 9.47266 11.0601 9.02734 11.3206C8.58203 11.581 8.10417 11.7828 7.59375 11.926C7.08333 12.0693 6.55208 12.1409 6 12.1409C5.44792 12.1409 4.91667 12.0693 4.40625 11.926C3.89583 11.7828 3.41797 11.581 2.97266 11.3206C2.52734 11.0601 2.1224 10.7476 1.75781 10.3831C1.39323 10.0185 1.08073 9.61353 0.820312 9.16821C0.559896 8.7229 0.358073 8.24504 0.214844 7.73462C0.0716146 7.2242 0 6.69295 0 6.14087C0 5.58879 0.0716146 5.05754 0.214844 4.54712C0.358073 4.0367 0.559896 3.55884 0.820312 3.11353C1.08073 2.66821 1.39323 2.26326 1.75781 1.89868C2.1224 1.5341 2.52734 1.2216 2.97266 0.961182C3.41797 0.700765 3.89583 0.498942 4.40625 0.355713C4.91667 0.212484 5.44792 0.140869 6 0.140869ZM6 11.1409C6.45833 11.1409 6.90104 11.081 7.32812 10.9612C7.75521 10.8414 8.15365 10.6734 8.52344 10.4573C8.89323 10.2411 9.23047 9.98071 9.53516 9.67603C9.83984 9.37134 10.1003 9.0341 10.3164 8.66431C10.5326 8.29451 10.7005 7.89608 10.8203 7.46899C10.9401 7.04191 11 6.5992 11 6.14087C11 5.68254 10.9401 5.23983 10.8203 4.81274C10.7005 4.38566 10.5326 3.98722 10.3164 3.61743C10.1003 3.24764 9.83984 2.9104 9.53516 2.60571C9.23047 2.30103 8.89323 2.04061 8.52344 1.82446C8.15365 1.60832 7.75521 1.44035 7.32812 1.32056C6.90104 1.20076 6.45833 1.14087 6 1.14087C5.54167 1.14087 5.09896 1.20076 4.67188 1.32056C4.24479 1.44035 3.84635 1.60832 3.47656 1.82446C3.10677 2.04061 2.76953 2.30103 2.46484 2.60571C2.16016 2.9104 1.89974 3.24764 1.68359 3.61743C1.46745 3.98722 1.29948 4.38566 1.17969 4.81274C1.0599 5.23983 1 5.68254 1 6.14087C1 6.5992 1.0599 7.04191 1.17969 7.46899C1.29948 7.89608 1.46745 8.29451 1.68359 8.66431C1.89974 9.0341 2.16016 9.37134 2.46484 9.67603C2.76953 9.98071 3.10677 10.2411 3.47656 10.4573C3.84635 10.6734 4.24479 10.8414 4.67188 10.9612C5.09896 11.081 5.54167 11.1409 6 11.1409ZM6 3.14087C6.41146 3.14087 6.79948 3.21899 7.16406 3.37524C7.52865 3.53149 7.84766 3.74634 8.12109 4.01978C8.39453 4.29321 8.60938 4.61222 8.76562 4.97681C8.92188 5.34139 9 5.72941 9 6.14087C9 6.55754 8.92188 6.94686 8.76562 7.30884C8.60938 7.67082 8.39453 7.98853 8.12109 8.26196C7.84766 8.5354 7.52865 8.75024 7.16406 8.90649C6.79948 9.06274 6.41146 9.14087 6 9.14087C5.58333 9.14087 5.19401 9.06274 4.83203 8.90649C4.47005 8.75024 4.15234 8.5354 3.87891 8.26196C3.60547 7.98853 3.39062 7.67082 3.23438 7.30884C3.07812 6.94686 3 6.55754 3 6.14087C3 5.72941 3.07812 5.34139 3.23438 4.97681C3.39062 4.61222 3.60547 4.29321 3.87891 4.01978C4.15234 3.74634 4.47005 3.53149 4.83203 3.37524C5.19401 3.21899 5.58333 3.14087 6 3.14087Z" fill="#FFCA28"/>
</svg>
