<svg width="117" height="18" viewBox="0 0 117 18" fill="none" xmlns="http://www.w3.org/2000/svg">
<path d="M8.72 5.096C8.848 5.53333 8.98667 6.02933 9.136 6.584C9.296 7.128 9.46133 7.69333 9.632 8.28C9.81333 8.86667 9.99467 9.45333 10.176 10.04C10.3573 10.6267 10.5333 11.1707 10.704 11.672C10.8427 11.128 10.9813 10.536 11.12 9.896C11.2693 9.256 11.408 8.59467 11.536 7.912C11.664 7.22933 11.7867 6.552 11.904 5.88C12.032 5.19733 12.1493 4.54133 12.256 3.912H14.848C14.4747 5.768 14.0427 7.65067 13.552 9.56C13.072 11.4693 12.5493 13.2827 11.984 15H9.696C9.32267 13.976 8.96 12.904 8.608 11.784C8.256 10.6533 7.90933 9.52267 7.568 8.392C7.22667 9.52267 6.88533 10.6533 6.544 11.784C6.20267 12.904 5.84533 13.976 5.472 15H3.184C2.61867 13.2827 2.09067 11.4693 1.6 9.56C1.12 7.65067 0.693333 5.768 0.32 3.912H3.024C3.13067 4.54133 3.248 5.19733 3.376 5.88C3.504 6.552 3.63733 7.22933 3.776 7.912C3.91467 8.59467 4.05333 9.256 4.192 9.896C4.34133 10.536 4.49067 11.128 4.64 11.672C4.832 11.1493 5.01867 10.5947 5.2 10.008C5.38133 9.42133 5.55733 8.83467 5.728 8.248C5.89867 7.66133 6.05333 7.096 6.192 6.552C6.34133 6.008 6.47467 5.52267 6.592 5.096H8.72ZM16.4519 15V3.912H23.9399V6.008H18.9479V8.184H23.3799V10.232H18.9479V12.904H24.3079V15H16.4519ZM29.179 13.096C29.531 13.096 29.819 13.0693 30.043 13.016C30.2777 12.952 30.4643 12.872 30.603 12.776C30.7417 12.6693 30.8377 12.5467 30.891 12.408C30.9443 12.2693 30.971 12.1147 30.971 11.944C30.971 11.5813 30.8003 11.2827 30.459 11.048C30.1177 10.8027 29.531 10.5413 28.699 10.264C28.3363 10.136 27.9737 9.992 27.611 9.832C27.2483 9.66133 26.923 9.45333 26.635 9.208C26.347 8.952 26.1123 8.648 25.931 8.296C25.7497 7.93333 25.659 7.496 25.659 6.984C25.659 6.472 25.755 6.01333 25.947 5.608C26.139 5.192 26.411 4.84 26.763 4.552C27.115 4.264 27.5417 4.04533 28.043 3.896C28.5443 3.736 29.1097 3.656 29.739 3.656C30.4857 3.656 31.131 3.736 31.675 3.896C32.219 4.056 32.667 4.232 33.019 4.424L32.299 6.392C31.9897 6.232 31.643 6.09333 31.259 5.976C30.8857 5.848 30.4323 5.784 29.899 5.784C29.3017 5.784 28.8697 5.86933 28.603 6.04C28.347 6.2 28.219 6.45067 28.219 6.792C28.219 6.99467 28.267 7.16533 28.363 7.304C28.459 7.44267 28.5923 7.57067 28.763 7.688C28.9443 7.79467 29.147 7.896 29.371 7.992C29.6057 8.07733 29.8617 8.168 30.139 8.264C30.715 8.47733 31.2163 8.69067 31.643 8.904C32.0697 9.10667 32.4217 9.34667 32.699 9.624C32.987 9.90133 33.2003 10.2267 33.339 10.6C33.4777 10.9733 33.547 11.4267 33.547 11.96C33.547 12.9947 33.1843 13.8 32.459 14.376C31.7337 14.9413 30.6403 15.224 29.179 15.224C28.6883 15.224 28.2457 15.192 27.851 15.128C27.4563 15.0747 27.1043 15.0053 26.795 14.92C26.4963 14.8347 26.235 14.744 26.011 14.648C25.7977 14.552 25.6163 14.4613 25.467 14.376L26.171 12.392C26.5017 12.5733 26.907 12.7387 27.387 12.888C27.8777 13.0267 28.475 13.096 29.179 13.096ZM43.379 3.912V6.04H40.035V15H37.539V6.04H34.195V3.912H43.379ZM56.2349 12.856V15H48.8269V3.912H51.3229V12.856H56.2349ZM65.7665 15C65.6492 14.616 65.5158 14.2213 65.3665 13.816C65.2278 13.4107 65.0892 13.0053 64.9505 12.6H60.6305C60.4918 13.0053 60.3478 13.4107 60.1985 13.816C60.0598 14.2213 59.9318 14.616 59.8145 15H57.2225C57.6385 13.8053 58.0332 12.7013 58.4065 11.688C58.7798 10.6747 59.1425 9.72 59.4945 8.824C59.8572 7.928 60.2092 7.08 60.5505 6.28C60.9025 5.46933 61.2652 4.68 61.6385 3.912H64.0225C64.3852 4.68 64.7425 5.46933 65.0945 6.28C65.4465 7.08 65.7985 7.928 66.1505 8.824C66.5132 9.72 66.8812 10.6747 67.2545 11.688C67.6278 12.7013 68.0225 13.8053 68.4385 15H65.7665ZM62.7745 6.424C62.7212 6.584 62.6412 6.80267 62.5345 7.08C62.4278 7.35733 62.3052 7.67733 62.1665 8.04C62.0278 8.40267 61.8732 8.80267 61.7025 9.24C61.5425 9.67733 61.3772 10.136 61.2065 10.616H64.3585C64.1878 10.136 64.0225 9.67733 63.8625 9.24C63.7025 8.80267 63.5478 8.40267 63.3985 8.04C63.2598 7.67733 63.1372 7.35733 63.0305 7.08C62.9238 6.80267 62.8385 6.584 62.7745 6.424ZM74.8755 5.832C73.7128 5.832 72.8702 6.15733 72.3475 6.808C71.8355 7.448 71.5795 8.328 71.5795 9.448C71.5795 9.992 71.6435 10.488 71.7715 10.936C71.8995 11.3733 72.0915 11.752 72.3475 12.072C72.6035 12.392 72.9235 12.6427 73.3075 12.824C73.6915 12.9947 74.1395 13.08 74.6515 13.08C74.9288 13.08 75.1635 13.0747 75.3555 13.064C75.5582 13.0533 75.7342 13.032 75.8835 13V9.144H78.3795V14.632C78.0808 14.7493 77.6008 14.872 76.9395 15C76.2782 15.1387 75.4622 15.208 74.4915 15.208C73.6595 15.208 72.9022 15.08 72.2195 14.824C71.5475 14.568 70.9715 14.1947 70.4915 13.704C70.0115 13.2133 69.6382 12.6107 69.3715 11.896C69.1155 11.1813 68.9875 10.3653 68.9875 9.448C68.9875 8.52 69.1315 7.69867 69.4195 6.984C69.7075 6.26933 70.1022 5.66667 70.6035 5.176C71.1048 4.67467 71.6915 4.296 72.3635 4.04C73.0462 3.784 73.7715 3.656 74.5395 3.656C75.0622 3.656 75.5315 3.69333 75.9475 3.768C76.3742 3.832 76.7368 3.912 77.0355 4.008C77.3448 4.09333 77.5955 4.184 77.7875 4.28C77.9902 4.376 78.1342 4.45067 78.2195 4.504L77.4995 6.504C77.1582 6.32267 76.7635 6.168 76.3155 6.04C75.8782 5.90133 75.3982 5.832 74.8755 5.832ZM82.7979 9.448C82.7979 9.992 82.8619 10.4827 82.9899 10.92C83.1285 11.3573 83.3205 11.736 83.5659 12.056C83.8219 12.3653 84.1312 12.6053 84.4939 12.776C84.8565 12.9467 85.2725 13.032 85.7419 13.032C86.2005 13.032 86.6112 12.9467 86.9739 12.776C87.3472 12.6053 87.6565 12.3653 87.9019 12.056C88.1579 11.736 88.3499 11.3573 88.4779 10.92C88.6165 10.4827 88.6859 9.992 88.6859 9.448C88.6859 8.904 88.6165 8.41333 88.4779 7.976C88.3499 7.528 88.1579 7.14933 87.9019 6.84C87.6565 6.52 87.3472 6.27467 86.9739 6.104C86.6112 5.93333 86.2005 5.848 85.7419 5.848C85.2725 5.848 84.8565 5.93867 84.4939 6.12C84.1312 6.29067 83.8219 6.536 83.5659 6.856C83.3205 7.16533 83.1285 7.544 82.9899 7.992C82.8619 8.42933 82.7979 8.91467 82.7979 9.448ZM91.2619 9.448C91.2619 10.3973 91.1179 11.2347 90.8299 11.96C90.5525 12.6747 90.1685 13.2773 89.6779 13.768C89.1872 14.248 88.6005 14.6107 87.9179 14.856C87.2459 15.1013 86.5205 15.224 85.7419 15.224C84.9845 15.224 84.2699 15.1013 83.5979 14.856C82.9259 14.6107 82.3392 14.248 81.8379 13.768C81.3365 13.2773 80.9419 12.6747 80.6539 11.96C80.3659 11.2347 80.2219 10.3973 80.2219 9.448C80.2219 8.49867 80.3712 7.66667 80.6699 6.952C80.9685 6.22667 81.3685 5.61867 81.8699 5.128C82.3819 4.63733 82.9685 4.26933 83.6299 4.024C84.3019 3.77867 85.0059 3.656 85.7419 3.656C86.4992 3.656 87.2139 3.77867 87.8859 4.024C88.5579 4.26933 89.1445 4.63733 89.6459 5.128C90.1472 5.61867 90.5419 6.22667 90.8299 6.952C91.1179 7.66667 91.2619 8.49867 91.2619 9.448ZM95.4385 9.448C95.4385 9.992 95.5025 10.4827 95.6305 10.92C95.7692 11.3573 95.9612 11.736 96.2065 12.056C96.4625 12.3653 96.7718 12.6053 97.1345 12.776C97.4972 12.9467 97.9132 13.032 98.3825 13.032C98.8412 13.032 99.2518 12.9467 99.6145 12.776C99.9878 12.6053 100.297 12.3653 100.543 12.056C100.799 11.736 100.991 11.3573 101.119 10.92C101.257 10.4827 101.327 9.992 101.327 9.448C101.327 8.904 101.257 8.41333 101.119 7.976C100.991 7.528 100.799 7.14933 100.543 6.84C100.297 6.52 99.9878 6.27467 99.6145 6.104C99.2518 5.93333 98.8412 5.848 98.3825 5.848C97.9132 5.848 97.4972 5.93867 97.1345 6.12C96.7718 6.29067 96.4625 6.536 96.2065 6.856C95.9612 7.16533 95.7692 7.544 95.6305 7.992C95.5025 8.42933 95.4385 8.91467 95.4385 9.448ZM103.903 9.448C103.903 10.3973 103.759 11.2347 103.471 11.96C103.193 12.6747 102.809 13.2773 102.319 13.768C101.828 14.248 101.241 14.6107 100.559 14.856C99.8865 15.1013 99.1612 15.224 98.3825 15.224C97.6252 15.224 96.9105 15.1013 96.2385 14.856C95.5665 14.6107 94.9798 14.248 94.4785 13.768C93.9772 13.2773 93.5825 12.6747 93.2945 11.96C93.0065 11.2347 92.8625 10.3973 92.8625 9.448C92.8625 8.49867 93.0118 7.66667 93.3105 6.952C93.6092 6.22667 94.0092 5.61867 94.5105 5.128C95.0225 4.63733 95.6092 4.26933 96.2705 4.024C96.9425 3.77867 97.6465 3.656 98.3825 3.656C99.1398 3.656 99.8545 3.77867 100.527 4.024C101.199 4.26933 101.785 4.63733 102.287 5.128C102.788 5.61867 103.183 6.22667 103.471 6.952C103.759 7.66667 103.903 8.49867 103.903 9.448ZM113.423 15C112.708 13.7307 111.935 12.4773 111.103 11.24C110.271 10.0027 109.386 8.83467 108.447 7.736V15H105.983V3.912H108.015C108.367 4.264 108.756 4.696 109.183 5.208C109.61 5.72 110.042 6.26933 110.479 6.856C110.927 7.432 111.37 8.03467 111.807 8.664C112.244 9.28267 112.655 9.88 113.039 10.456V3.912H115.519V15H113.423Z" fill="#047857"/>
</svg>
