<svg width="146" height="23" viewBox="0 0 146 23" fill="none" xmlns="http://www.w3.org/2000/svg">
<path d="M10.9 6.62C11.06 7.16667 11.2333 7.78667 11.42 8.48C11.62 9.16 11.8267 9.86667 12.04 10.6C12.2667 11.3333 12.4933 12.0667 12.72 12.8C12.9467 13.5333 13.1667 14.2133 13.38 14.84C13.5533 14.16 13.7267 13.42 13.9 12.62C14.0867 11.82 14.26 10.9933 14.42 10.14C14.58 9.28667 14.7333 8.44 14.88 7.6C15.04 6.74667 15.1867 5.92667 15.32 5.14H18.56C18.0933 7.46 17.5533 9.81333 16.94 12.2C16.34 14.5867 15.6867 16.8533 14.98 19H12.12C11.6533 17.72 11.2 16.38 10.76 14.98C10.32 13.5667 9.88667 12.1533 9.46 10.74C9.03333 12.1533 8.60667 13.5667 8.18 14.98C7.75333 16.38 7.30667 17.72 6.84 19H3.98C3.27333 16.8533 2.61333 14.5867 2 12.2C1.4 9.81333 0.866667 7.46 0.4 5.14H3.78C3.91333 5.92667 4.06 6.74667 4.22 7.6C4.38 8.44 4.54667 9.28667 4.72 10.14C4.89333 10.9933 5.06667 11.82 5.24 12.62C5.42667 13.42 5.61333 14.16 5.8 14.84C6.04 14.1867 6.27333 13.4933 6.5 12.76C6.72667 12.0267 6.94667 11.2933 7.16 10.56C7.37333 9.82667 7.56667 9.12 7.74 8.44C7.92667 7.76 8.09333 7.15333 8.24 6.62H10.9ZM20.5648 19V5.14H29.9248V7.76H23.6848V10.48H29.2248V13.04H23.6848V16.38H30.3848V19H20.5648ZM36.4738 16.62C36.9138 16.62 37.2738 16.5867 37.5538 16.52C37.8471 16.44 38.0804 16.34 38.2538 16.22C38.4271 16.0867 38.5471 15.9333 38.6138 15.76C38.6804 15.5867 38.7138 15.3933 38.7138 15.18C38.7138 14.7267 38.5004 14.3533 38.0738 14.06C37.6471 13.7533 36.9138 13.4267 35.8738 13.08C35.4204 12.92 34.9671 12.74 34.5138 12.54C34.0604 12.3267 33.6538 12.0667 33.2938 11.76C32.9338 11.44 32.6404 11.06 32.4137 10.62C32.1871 10.1667 32.0738 9.62 32.0738 8.98C32.0738 8.34 32.1938 7.76667 32.4338 7.26C32.6738 6.74 33.0138 6.3 33.4538 5.94C33.8938 5.58 34.4271 5.30667 35.0538 5.12C35.6804 4.92 36.3871 4.82 37.1738 4.82C38.1071 4.82 38.9138 4.92 39.5938 5.12C40.2738 5.32 40.8338 5.54 41.2738 5.78L40.3738 8.24C39.9871 8.04 39.5538 7.86667 39.0738 7.72C38.6071 7.56 38.0404 7.48 37.3738 7.48C36.6271 7.48 36.0871 7.58667 35.7538 7.8C35.4338 8 35.2738 8.31333 35.2738 8.74C35.2738 8.99333 35.3338 9.20667 35.4538 9.38C35.5738 9.55333 35.7404 9.71333 35.9538 9.86C36.1804 9.99333 36.4338 10.12 36.7138 10.24C37.0071 10.3467 37.3271 10.46 37.6738 10.58C38.3938 10.8467 39.0204 11.1133 39.5538 11.38C40.0871 11.6333 40.5271 11.9333 40.8738 12.28C41.2338 12.6267 41.5004 13.0333 41.6738 13.5C41.8471 13.9667 41.9338 14.5333 41.9338 15.2C41.9338 16.4933 41.4804 17.5 40.5738 18.22C39.6671 18.9267 38.3004 19.28 36.4738 19.28C35.8604 19.28 35.3071 19.24 34.8138 19.16C34.3204 19.0933 33.8804 19.0067 33.4938 18.9C33.1204 18.7933 32.7938 18.68 32.5138 18.56C32.2471 18.44 32.0204 18.3267 31.8338 18.22L32.7138 15.74C33.1271 15.9667 33.6338 16.1733 34.2338 16.36C34.8471 16.5333 35.5938 16.62 36.4738 16.62ZM54.2238 5.14V7.8H50.0438V19H46.9238V7.8H42.7438V5.14H54.2238ZM70.2936 16.32V19H61.0336V5.14H64.1536V16.32H70.2936ZM82.2081 19C82.0615 18.52 81.8948 18.0267 81.7081 17.52C81.5348 17.0133 81.3615 16.5067 81.1881 16H75.7881C75.6148 16.5067 75.4348 17.0133 75.2481 17.52C75.0748 18.0267 74.9148 18.52 74.7681 19H71.5281C72.0481 17.5067 72.5415 16.1267 73.0081 14.86C73.4748 13.5933 73.9281 12.4 74.3681 11.28C74.8215 10.16 75.2615 9.1 75.6881 8.1C76.1281 7.08667 76.5815 6.1 77.0481 5.14H80.0281C80.4815 6.1 80.9281 7.08667 81.3681 8.1C81.8081 9.1 82.2481 10.16 82.6881 11.28C83.1415 12.4 83.6015 13.5933 84.0681 14.86C84.5348 16.1267 85.0281 17.5067 85.5481 19H82.2081ZM78.4681 8.28C78.4015 8.48 78.3015 8.75333 78.1681 9.1C78.0348 9.44667 77.8815 9.84667 77.7081 10.3C77.5348 10.7533 77.3415 11.2533 77.1281 11.8C76.9281 12.3467 76.7215 12.92 76.5081 13.52H80.4481C80.2348 12.92 80.0281 12.3467 79.8281 11.8C79.6281 11.2533 79.4348 10.7533 79.2481 10.3C79.0748 9.84667 78.9215 9.44667 78.7881 9.1C78.6548 8.75333 78.5481 8.48 78.4681 8.28ZM93.5944 7.54C92.141 7.54 91.0877 7.94667 90.4344 8.76C89.7944 9.56 89.4744 10.66 89.4744 12.06C89.4744 12.74 89.5544 13.36 89.7144 13.92C89.8744 14.4667 90.1144 14.94 90.4344 15.34C90.7544 15.74 91.1544 16.0533 91.6344 16.28C92.1144 16.4933 92.6744 16.6 93.3144 16.6C93.661 16.6 93.9544 16.5933 94.1944 16.58C94.4477 16.5667 94.6677 16.54 94.8544 16.5V11.68H97.9744V18.54C97.601 18.6867 97.001 18.84 96.1744 19C95.3477 19.1733 94.3277 19.26 93.1144 19.26C92.0744 19.26 91.1277 19.1 90.2744 18.78C89.4344 18.46 88.7144 17.9933 88.1144 17.38C87.5144 16.7667 87.0477 16.0133 86.7144 15.12C86.3944 14.2267 86.2344 13.2067 86.2344 12.06C86.2344 10.9 86.4144 9.87333 86.7744 8.98C87.1344 8.08667 87.6277 7.33333 88.2544 6.72C88.881 6.09333 89.6144 5.62 90.4544 5.3C91.3077 4.98 92.2144 4.82 93.1744 4.82C93.8277 4.82 94.4144 4.86667 94.9344 4.96C95.4677 5.04 95.921 5.14 96.2944 5.26C96.681 5.36667 96.9944 5.48 97.2344 5.6C97.4877 5.72 97.6677 5.81333 97.7744 5.88L96.8744 8.38C96.4477 8.15333 95.9544 7.96 95.3944 7.8C94.8477 7.62667 94.2477 7.54 93.5944 7.54ZM103.497 12.06C103.497 12.74 103.577 13.3533 103.737 13.9C103.911 14.4467 104.151 14.92 104.457 15.32C104.777 15.7067 105.164 16.0067 105.617 16.22C106.071 16.4333 106.591 16.54 107.177 16.54C107.751 16.54 108.264 16.4333 108.717 16.22C109.184 16.0067 109.571 15.7067 109.877 15.32C110.197 14.92 110.437 14.4467 110.597 13.9C110.771 13.3533 110.857 12.74 110.857 12.06C110.857 11.38 110.771 10.7667 110.597 10.22C110.437 9.66 110.197 9.18667 109.877 8.8C109.571 8.4 109.184 8.09333 108.717 7.88C108.264 7.66667 107.751 7.56 107.177 7.56C106.591 7.56 106.071 7.67333 105.617 7.9C105.164 8.11333 104.777 8.42 104.457 8.82C104.151 9.20667 103.911 9.68 103.737 10.24C103.577 10.7867 103.497 11.3933 103.497 12.06ZM114.077 12.06C114.077 13.2467 113.897 14.2933 113.537 15.2C113.191 16.0933 112.711 16.8467 112.097 17.46C111.484 18.06 110.751 18.5133 109.897 18.82C109.057 19.1267 108.151 19.28 107.177 19.28C106.231 19.28 105.337 19.1267 104.497 18.82C103.657 18.5133 102.924 18.06 102.297 17.46C101.671 16.8467 101.177 16.0933 100.817 15.2C100.457 14.2933 100.277 13.2467 100.277 12.06C100.277 10.8733 100.464 9.83333 100.837 8.94C101.211 8.03333 101.711 7.27333 102.337 6.66C102.977 6.04667 103.711 5.58667 104.537 5.28C105.377 4.97333 106.257 4.82 107.177 4.82C108.124 4.82 109.017 4.97333 109.857 5.28C110.697 5.58667 111.431 6.04667 112.057 6.66C112.684 7.27333 113.177 8.03333 113.537 8.94C113.897 9.83333 114.077 10.8733 114.077 12.06ZM119.298 12.06C119.298 12.74 119.378 13.3533 119.538 13.9C119.711 14.4467 119.951 14.92 120.258 15.32C120.578 15.7067 120.965 16.0067 121.418 16.22C121.871 16.4333 122.391 16.54 122.978 16.54C123.551 16.54 124.065 16.4333 124.518 16.22C124.985 16.0067 125.371 15.7067 125.678 15.32C125.998 14.92 126.238 14.4467 126.398 13.9C126.571 13.3533 126.658 12.74 126.658 12.06C126.658 11.38 126.571 10.7667 126.398 10.22C126.238 9.66 125.998 9.18667 125.678 8.8C125.371 8.4 124.985 8.09333 124.518 7.88C124.065 7.66667 123.551 7.56 122.978 7.56C122.391 7.56 121.871 7.67333 121.418 7.9C120.965 8.11333 120.578 8.42 120.258 8.82C119.951 9.20667 119.711 9.68 119.538 10.24C119.378 10.7867 119.298 11.3933 119.298 12.06ZM129.878 12.06C129.878 13.2467 129.698 14.2933 129.338 15.2C128.991 16.0933 128.511 16.8467 127.898 17.46C127.285 18.06 126.551 18.5133 125.698 18.82C124.858 19.1267 123.951 19.28 122.978 19.28C122.031 19.28 121.138 19.1267 120.298 18.82C119.458 18.5133 118.725 18.06 118.098 17.46C117.471 16.8467 116.978 16.0933 116.618 15.2C116.258 14.2933 116.078 13.2467 116.078 12.06C116.078 10.8733 116.265 9.83333 116.638 8.94C117.011 8.03333 117.511 7.27333 118.138 6.66C118.778 6.04667 119.511 5.58667 120.338 5.28C121.178 4.97333 122.058 4.82 122.978 4.82C123.925 4.82 124.818 4.97333 125.658 5.28C126.498 5.58667 127.231 6.04667 127.858 6.66C128.485 7.27333 128.978 8.03333 129.338 8.94C129.698 9.83333 129.878 10.8733 129.878 12.06ZM141.779 19C140.886 17.4133 139.919 15.8467 138.879 14.3C137.839 12.7533 136.732 11.2933 135.559 9.92V19H132.479V5.14H135.019C135.459 5.58 135.946 6.12 136.479 6.76C137.012 7.4 137.552 8.08667 138.099 8.82C138.659 9.54 139.212 10.2933 139.759 11.08C140.306 11.8533 140.819 12.6 141.299 13.32V5.14H144.399V19H141.779Z" fill="#047857"/>
</svg>
