<svg width="112" height="20" viewBox="0 0 112 20" fill="none" xmlns="http://www.w3.org/2000/svg">
<path d="M13.877 2.73047V2.9834C13.7038 2.99707 13.5579 3.04492 13.4395 3.12695C13.321 3.20898 13.2161 3.33431 13.125 3.50293C13.0977 3.55762 12.9541 3.91081 12.6943 4.5625L9.78906 12.2119H9.52246L7.22559 6.2373L4.69629 12.2119H4.44336L1.39453 4.64453C1.08464 3.88346 0.868164 3.42318 0.745117 3.26367C0.62207 3.10417 0.414714 3.01074 0.123047 2.9834V2.73047H4.14258V2.9834C3.81901 2.99251 3.60254 3.04264 3.49316 3.13379C3.38835 3.22038 3.33594 3.32975 3.33594 3.46191C3.33594 3.63509 3.44759 4.00195 3.6709 4.5625L5.48926 9.06055L6.94531 5.54688L6.5625 4.5625C6.35286 4.02474 6.19108 3.66699 6.07715 3.48926C5.96322 3.30697 5.83105 3.17708 5.68066 3.09961C5.53483 3.02214 5.31836 2.9834 5.03125 2.9834V2.73047H9.52246V2.9834C9.20801 2.98796 8.98242 3.01302 8.8457 3.05859C8.75 3.09049 8.6748 3.14518 8.62012 3.22266C8.56543 3.29557 8.53809 3.37988 8.53809 3.47559C8.53809 3.5804 8.64062 3.90169 8.8457 4.43945L10.5342 8.82812L12.0449 4.85645C12.2044 4.44629 12.3024 4.16602 12.3389 4.01562C12.3753 3.86523 12.3936 3.72624 12.3936 3.59863C12.3936 3.41178 12.3298 3.26595 12.2021 3.16113C12.0745 3.05176 11.8307 2.99251 11.4707 2.9834V2.73047H13.877ZM18.3045 3.26367V7.03711H18.489C19.0769 7.03711 19.503 6.85254 19.7673 6.4834C20.0317 6.11426 20.2003 5.56966 20.2732 4.84961H20.533V9.70312H20.2732C20.2185 9.17448 20.1023 8.74154 19.9246 8.4043C19.7514 8.06706 19.5486 7.84147 19.3162 7.72754C19.0837 7.60905 18.7465 7.5498 18.3045 7.5498V10.1611C18.3045 10.6715 18.325 10.9837 18.366 11.0977C18.4115 11.2116 18.4936 11.305 18.6121 11.3779C18.7306 11.4508 18.922 11.4873 19.1863 11.4873H19.74C20.6059 11.4873 21.2986 11.2868 21.8181 10.8857C22.3422 10.4847 22.7182 9.87402 22.9461 9.05371H23.199L22.782 12H14.7703V11.7471H15.0779C15.3468 11.7471 15.5632 11.6992 15.7273 11.6035C15.8458 11.5397 15.9369 11.4303 16.0007 11.2754C16.0509 11.166 16.0759 10.8789 16.0759 10.4141V4.31641C16.0759 3.89714 16.0645 3.63965 16.0418 3.54395C15.9962 3.38444 15.9119 3.26139 15.7888 3.1748C15.6157 3.0472 15.3787 2.9834 15.0779 2.9834H14.7703V2.73047H22.5291V5.47168H22.2693C22.1371 4.80176 21.9503 4.32096 21.7087 4.0293C21.4718 3.73763 21.1345 3.52344 20.697 3.38672C20.4418 3.30469 19.9633 3.26367 19.2615 3.26367H18.3045ZM30.8941 2.51855L30.9693 5.6084H30.689C30.5568 4.83366 30.231 4.21159 29.7114 3.74219C29.1965 3.26823 28.6382 3.03125 28.0366 3.03125C27.5718 3.03125 27.2027 3.15658 26.9292 3.40723C26.6603 3.65332 26.5259 3.93815 26.5259 4.26172C26.5259 4.4668 26.5737 4.64909 26.6695 4.80859C26.8016 5.02279 27.0135 5.2347 27.3052 5.44434C27.5194 5.59473 28.0139 5.86133 28.7886 6.24414C29.8732 6.77734 30.6047 7.28092 30.9829 7.75488C31.3566 8.22884 31.5435 8.77116 31.5435 9.38184C31.5435 10.1566 31.2404 10.8242 30.6343 11.3848C30.0327 11.9408 29.2671 12.2188 28.3374 12.2188C28.0458 12.2188 27.77 12.1891 27.5103 12.1299C27.2505 12.0706 26.9247 11.959 26.5327 11.7949C26.314 11.7038 26.134 11.6582 25.9927 11.6582C25.8742 11.6582 25.7489 11.7038 25.6167 11.7949C25.4846 11.8861 25.3775 12.0251 25.2954 12.2119H25.0425V8.71191H25.2954C25.496 9.69629 25.881 10.4482 26.4507 10.9678C27.0249 11.4827 27.6424 11.7402 28.3032 11.7402C28.8137 11.7402 29.2193 11.6012 29.52 11.3232C29.8254 11.0452 29.978 10.7217 29.978 10.3525C29.978 10.1338 29.9188 9.92188 29.8003 9.7168C29.6864 9.51172 29.5109 9.31803 29.2739 9.13574C29.037 8.94889 28.6177 8.70736 28.0161 8.41113C27.173 7.99642 26.5669 7.64323 26.1978 7.35156C25.8286 7.0599 25.5438 6.73405 25.3433 6.37402C25.1473 6.014 25.0493 5.61751 25.0493 5.18457C25.0493 4.44629 25.3205 3.81738 25.8628 3.29785C26.4051 2.77832 27.0887 2.51855 27.9136 2.51855C28.2144 2.51855 28.506 2.55501 28.7886 2.62793C29.0028 2.68262 29.2626 2.78516 29.5679 2.93555C29.8778 3.08138 30.0943 3.1543 30.2173 3.1543C30.3358 3.1543 30.4292 3.11784 30.4976 3.04492C30.5659 2.97201 30.6297 2.79655 30.689 2.51855H30.8941ZM41.4329 2.73047V5.23926H41.1868C41.041 4.66048 40.8792 4.24577 40.7014 3.99512C40.5237 3.73991 40.2799 3.53711 39.97 3.38672C39.7968 3.30469 39.4938 3.26367 39.0608 3.26367H38.3704V10.4141C38.3704 10.888 38.3955 11.1842 38.4456 11.3027C38.5003 11.4212 38.6028 11.526 38.7532 11.6172C38.9082 11.7038 39.1178 11.7471 39.3821 11.7471H39.6897V12H34.8362V11.7471H35.1438C35.4127 11.7471 35.6292 11.6992 35.7932 11.6035C35.9117 11.5397 36.0052 11.4303 36.0735 11.2754C36.1236 11.166 36.1487 10.8789 36.1487 10.4141V3.26367H35.4788C34.8544 3.26367 34.401 3.39583 34.1184 3.66016C33.722 4.0293 33.4713 4.55566 33.3665 5.23926H33.1067V2.73047H41.4329ZM55.2576 8.74609L54.909 12H46.6785V11.7471H46.9861C47.255 11.7471 47.4715 11.6992 47.6355 11.6035C47.754 11.5397 47.8452 11.4303 47.909 11.2754C47.9591 11.166 47.9842 10.8789 47.9842 10.4141V4.31641C47.9842 3.84245 47.9591 3.54622 47.909 3.42773C47.8589 3.30924 47.7563 3.20671 47.6014 3.12012C47.451 3.02897 47.2459 2.9834 46.9861 2.9834H46.6785V2.73047H51.6209V2.9834H51.2176C50.9487 2.9834 50.7322 3.03125 50.5682 3.12695C50.4497 3.19076 50.3563 3.30013 50.2879 3.45508C50.2378 3.56445 50.2127 3.85156 50.2127 4.31641V10.2227C50.2127 10.6966 50.24 10.9997 50.2947 11.1318C50.3494 11.2594 50.4565 11.3551 50.616 11.4189C50.7299 11.46 51.0057 11.4805 51.4432 11.4805H52.2156C52.7078 11.4805 53.118 11.3939 53.4461 11.2207C53.7742 11.0475 54.0568 10.7741 54.2938 10.4004C54.5353 10.0267 54.7632 9.47526 54.9773 8.74609H55.2576ZM62.0709 9.36133H58.7964L58.4068 10.2637C58.2792 10.5645 58.2154 10.8128 58.2154 11.0088C58.2154 11.2686 58.3202 11.46 58.5298 11.583C58.6529 11.6559 58.9559 11.7106 59.439 11.7471V12H56.356V11.7471C56.6887 11.6969 56.9621 11.5602 57.1763 11.3369C57.3905 11.109 57.6548 10.6419 57.9693 9.93555L61.2847 2.53906H61.4146L64.7574 10.1406C65.0764 10.8607 65.3384 11.3141 65.5435 11.501C65.6985 11.6423 65.9172 11.7243 66.1998 11.7471V12H61.7154V11.7471H61.9C62.26 11.7471 62.5129 11.6969 62.6587 11.5967C62.759 11.5238 62.8091 11.4189 62.8091 11.2822C62.8091 11.2002 62.7955 11.1159 62.7681 11.0293C62.759 10.9883 62.6906 10.8174 62.563 10.5166L62.0709 9.36133ZM61.8384 8.85547L60.4576 5.66309L59.0357 8.85547H61.8384ZM76.513 2.51855V5.78613H76.2601C75.9547 4.8929 75.4967 4.21387 74.8861 3.74902C74.2754 3.28418 73.6077 3.05176 72.8831 3.05176C72.1904 3.05176 71.6139 3.24772 71.1536 3.63965C70.6933 4.02702 70.3675 4.56934 70.1761 5.2666C69.9847 5.96387 69.889 6.67936 69.889 7.41309C69.889 8.30176 69.9938 9.08105 70.2034 9.75098C70.4131 10.4209 70.7503 10.9131 71.2152 11.2275C71.6846 11.542 72.2405 11.6992 72.8831 11.6992C73.1064 11.6992 73.3343 11.6764 73.5667 11.6309C73.8037 11.5807 74.0452 11.5101 74.2913 11.4189V9.49121C74.2913 9.12663 74.2663 8.89193 74.2161 8.78711C74.166 8.67773 74.0612 8.57975 73.9017 8.49316C73.7467 8.40658 73.5576 8.36328 73.3343 8.36328H73.095V8.11035H77.5999V8.36328C77.2581 8.38607 77.0189 8.43392 76.8821 8.50684C76.75 8.5752 76.6474 8.69141 76.5745 8.85547C76.5335 8.94206 76.513 9.15397 76.513 9.49121V11.4189C75.9206 11.6833 75.303 11.8815 74.6605 12.0137C74.0224 12.1504 73.3594 12.2188 72.6712 12.2188C71.7917 12.2188 71.0602 12.1003 70.4769 11.8633C69.8981 11.6217 69.3854 11.3073 68.9388 10.9199C68.4967 10.528 68.1504 10.0882 67.8997 9.60059C67.5807 8.97168 67.4212 8.26758 67.4212 7.48828C67.4212 6.09375 67.9111 4.91569 68.8909 3.9541C69.8708 2.99251 71.1035 2.51172 72.5892 2.51172C73.0495 2.51172 73.4642 2.54818 73.8333 2.62109C74.0338 2.65755 74.3574 2.76237 74.804 2.93555C75.2552 3.10417 75.5218 3.18848 75.6038 3.18848C75.7314 3.18848 75.8499 3.1429 75.9593 3.05176C76.0687 2.95605 76.1689 2.77832 76.2601 2.51855H76.513ZM83.6475 2.60059C85.1241 2.5459 86.3227 2.97656 87.2432 3.89258C88.1684 4.80859 88.6309 5.95475 88.6309 7.33105C88.6309 8.50684 88.2869 9.54134 87.5987 10.4346C86.6873 11.6195 85.3998 12.2119 83.7364 12.2119C82.0684 12.2119 80.7787 11.6468 79.8673 10.5166C79.1472 9.62337 78.7872 8.5638 78.7872 7.33789C78.7872 5.96159 79.2543 4.81543 80.1886 3.89941C81.1274 2.97884 82.2803 2.5459 83.6475 2.60059ZM83.7296 3.03809C82.8819 3.03809 82.2371 3.47103 81.795 4.33691C81.435 5.04785 81.255 6.06868 81.255 7.39941C81.255 8.98079 81.533 10.1497 82.0889 10.9062C82.4763 11.4349 83.0186 11.6992 83.7159 11.6992C84.1853 11.6992 84.5772 11.5853 84.8917 11.3574C85.2927 11.0658 85.6049 10.6009 85.8282 9.96289C86.0515 9.32031 86.1632 8.48405 86.1632 7.4541C86.1632 6.22819 86.0492 5.31217 85.8214 4.70605C85.5935 4.09538 85.3018 3.66471 84.9464 3.41406C84.5955 3.16341 84.1899 3.03809 83.7296 3.03809ZM95.034 2.60059C96.5106 2.5459 97.7092 2.97656 98.6297 3.89258C99.5549 4.80859 100.017 5.95475 100.017 7.33105C100.017 8.50684 99.6734 9.54134 98.9852 10.4346C98.0737 11.6195 96.7863 12.2119 95.1229 12.2119C93.4549 12.2119 92.1652 11.6468 91.2538 10.5166C90.5337 9.62337 90.1737 8.5638 90.1737 7.33789C90.1737 5.96159 90.6408 4.81543 91.575 3.89941C92.5138 2.97884 93.6668 2.5459 95.034 2.60059ZM95.1161 3.03809C94.2684 3.03809 93.6235 3.47103 93.1815 4.33691C92.8215 5.04785 92.6414 6.06868 92.6414 7.39941C92.6414 8.98079 92.9194 10.1497 93.4754 10.9062C93.8628 11.4349 94.4051 11.6992 95.1024 11.6992C95.5718 11.6992 95.9637 11.5853 96.2782 11.3574C96.6792 11.0658 96.9914 10.6009 97.2147 9.96289C97.438 9.32031 97.5497 8.48405 97.5497 7.4541C97.5497 6.22819 97.4357 5.31217 97.2079 4.70605C96.98 4.09538 96.6883 3.66471 96.3329 3.41406C95.9819 3.16341 95.5763 3.03809 95.1161 3.03809ZM104.5 2.73047L109.073 8.47949V4.49414C109.073 3.93815 108.993 3.56217 108.834 3.36621C108.615 3.10189 108.248 2.97428 107.733 2.9834V2.73047H110.796V2.9834C110.404 3.03353 110.139 3.09961 110.003 3.18164C109.87 3.25911 109.766 3.389 109.688 3.57129C109.615 3.74902 109.579 4.05664 109.579 4.49414V12.2119H109.346L103.078 4.49414V10.3867C103.078 10.9199 103.199 11.2799 103.44 11.4668C103.686 11.6536 103.966 11.7471 104.281 11.7471H104.5V12H101.212V11.7471C101.722 11.7425 102.077 11.6377 102.278 11.4326C102.478 11.2275 102.579 10.8789 102.579 10.3867V3.84473L102.38 3.59863C102.185 3.35254 102.011 3.19076 101.861 3.11328C101.711 3.03581 101.494 2.99251 101.212 2.9834V2.73047H104.5Z" fill="#8A8156"/>
<path d="M21.092 19H25.052V18.04H22.332V16.48H24.796V15.536H22.332V14.16H24.964V13.216H21.092V19ZM31.6706 17.152C31.6786 17.712 31.6946 19.136 33.9106 19.136C35.5106 19.136 36.3746 18.296 36.3746 17.256C36.3746 16.128 35.3906 15.856 34.3906 15.616C33.5586 15.408 33.1346 15.312 33.1346 14.776C33.1346 14.304 33.5106 13.992 34.0866 13.992C34.9426 13.992 35.0066 14.672 35.0226 14.872H36.2146C36.2146 14.68 36.2146 14.216 35.8866 13.8C35.4546 13.256 34.7426 13.12 34.1426 13.12C32.5346 13.12 31.8546 13.96 31.8546 14.912C31.8546 15.912 32.6066 16.32 33.9826 16.664C34.7186 16.84 35.0786 16.928 35.0786 17.44C35.0786 17.928 34.6546 18.248 33.9826 18.248C32.9186 18.248 32.9346 17.424 32.9346 17.152H31.6706ZM44.4023 19H45.6503V14.176H47.3703V13.216H42.6823V14.176H44.4023V19ZM54.8311 13.216L52.7431 19H53.9271L54.3591 17.752H56.6471L57.0631 19H58.3111L56.3031 13.216H54.8311ZM54.6791 16.816L55.5351 14.352L56.3351 16.816H54.6791ZM65.4258 19H66.6738V14.176H68.3938V13.216H63.7058V14.176H65.4258V19ZM75.0764 19H79.0364V18.04H76.3164V16.48H78.7804V15.536H76.3164V14.16H78.9484V13.216H75.0764V19ZM85.655 17.152C85.663 17.712 85.679 19.136 87.895 19.136C89.495 19.136 90.359 18.296 90.359 17.256C90.359 16.128 89.375 15.856 88.375 15.616C87.543 15.408 87.119 15.312 87.119 14.776C87.119 14.304 87.495 13.992 88.071 13.992C88.927 13.992 88.991 14.672 89.007 14.872H90.199C90.199 14.68 90.199 14.216 89.871 13.8C89.439 13.256 88.727 13.12 88.127 13.12C86.519 13.12 85.839 13.96 85.839 14.912C85.839 15.912 86.591 16.32 87.967 16.664C88.703 16.84 89.063 16.928 89.063 17.44C89.063 17.928 88.639 18.248 87.967 18.248C86.903 18.248 86.919 17.424 86.919 17.152H85.655Z" fill="#7D754F"/>
</svg>
