<svg width="143" height="28" viewBox="0 0 143 28" fill="none" xmlns="http://www.w3.org/2000/svg">
<path d="M17.8418 3.08203V3.40723C17.6191 3.4248 17.4316 3.48633 17.2793 3.5918C17.127 3.69727 16.9922 3.8584 16.875 4.0752C16.8398 4.14551 16.6553 4.59961 16.3213 5.4375L12.5859 15.2725H12.2432L9.29004 7.59082L6.03809 15.2725H5.71289L1.79297 5.54297C1.39453 4.56445 1.11621 3.97266 0.958008 3.76758C0.799805 3.5625 0.533203 3.44238 0.158203 3.40723V3.08203H5.32617V3.40723C4.91016 3.41895 4.63184 3.4834 4.49121 3.60059C4.35645 3.71191 4.28906 3.85254 4.28906 4.02246C4.28906 4.24512 4.43262 4.7168 4.71973 5.4375L7.05762 11.2207L8.92969 6.70312L8.4375 5.4375C8.16797 4.74609 7.95996 4.28613 7.81348 4.05762C7.66699 3.82324 7.49707 3.65625 7.30371 3.55664C7.11621 3.45703 6.83789 3.40723 6.46875 3.40723V3.08203H12.2432V3.40723C11.8389 3.41309 11.5488 3.44531 11.373 3.50391C11.25 3.54492 11.1533 3.61523 11.083 3.71484C11.0127 3.80859 10.9775 3.91699 10.9775 4.04004C10.9775 4.1748 11.1094 4.58789 11.373 5.2793L13.5439 10.9219L15.4863 5.81543C15.6914 5.28809 15.8174 4.92773 15.8643 4.73438C15.9111 4.54102 15.9346 4.3623 15.9346 4.19824C15.9346 3.95801 15.8525 3.77051 15.6885 3.63574C15.5244 3.49512 15.2109 3.41895 14.748 3.40723V3.08203H17.8418ZM23.5343 3.76758V8.61914H23.7716C24.5275 8.61914 25.0753 8.38184 25.4152 7.90723C25.755 7.43262 25.9718 6.73242 26.0655 5.80664H26.3995V12.0469H26.0655C25.9952 11.3672 25.8458 10.8105 25.6173 10.377C25.3946 9.94336 25.1339 9.65332 24.8351 9.50684C24.5362 9.35449 24.1027 9.27832 23.5343 9.27832V12.6357C23.5343 13.292 23.5607 13.6934 23.6134 13.8398C23.672 13.9863 23.7775 14.1064 23.9298 14.2002C24.0821 14.2939 24.3282 14.3408 24.6681 14.3408H25.38C26.4933 14.3408 27.3839 14.083 28.0519 13.5674C28.7257 13.0518 29.2091 12.2666 29.5021 11.2119H29.8273L29.2911 15H18.9904V14.6748H19.3859C19.7316 14.6748 20.0099 14.6133 20.2208 14.4902C20.3732 14.4082 20.4904 14.2676 20.5724 14.0684C20.6368 13.9277 20.6691 13.5586 20.6691 12.9609V5.12109C20.6691 4.58203 20.6544 4.25098 20.6251 4.12793C20.5665 3.92285 20.4581 3.76465 20.2999 3.65332C20.0773 3.48926 19.7726 3.40723 19.3859 3.40723H18.9904V3.08203H28.9659V6.60645H28.632C28.462 5.74512 28.2218 5.12695 27.9112 4.75195C27.6066 4.37695 27.173 4.10156 26.6105 3.92578C26.2823 3.82031 25.6671 3.76758 24.7648 3.76758H23.5343ZM39.7209 2.80957L39.8176 6.78223H39.4573C39.2873 5.78613 38.8684 4.98633 38.2004 4.38281C37.5383 3.77344 36.8205 3.46875 36.0471 3.46875C35.4495 3.46875 34.9748 3.62988 34.6233 3.95215C34.2776 4.26855 34.1047 4.63477 34.1047 5.05078C34.1047 5.31445 34.1663 5.54883 34.2893 5.75391C34.4592 6.0293 34.7317 6.30176 35.1067 6.57129C35.3821 6.76465 36.0178 7.10742 37.0139 7.59961C38.4084 8.28516 39.3489 8.93262 39.8352 9.54199C40.3157 10.1514 40.5559 10.8486 40.5559 11.6338C40.5559 12.6299 40.1663 13.4883 39.387 14.209C38.6135 14.9238 37.6291 15.2812 36.4338 15.2812C36.0588 15.2812 35.7043 15.2432 35.3704 15.167C35.0364 15.0908 34.6174 14.9473 34.1135 14.7363C33.8323 14.6191 33.6008 14.5605 33.4192 14.5605C33.2668 14.5605 33.1057 14.6191 32.9358 14.7363C32.7659 14.8535 32.6282 15.0322 32.5227 15.2725H32.1975V10.7725H32.5227C32.7805 12.0381 33.2756 13.0049 34.008 13.6729C34.7463 14.335 35.5403 14.666 36.3899 14.666C37.0461 14.666 37.5676 14.4873 37.9543 14.1299C38.3469 13.7725 38.5432 13.3564 38.5432 12.8818C38.5432 12.6006 38.467 12.3281 38.3147 12.0645C38.1682 11.8008 37.9426 11.5518 37.6379 11.3174C37.3332 11.0771 36.7942 10.7666 36.0207 10.3857C34.9368 9.85254 34.1575 9.39844 33.6829 9.02344C33.2082 8.64844 32.842 8.22949 32.5842 7.7666C32.3323 7.30371 32.2063 6.79395 32.2063 6.2373C32.2063 5.28809 32.5549 4.47949 33.2522 3.81152C33.9495 3.14355 34.8284 2.80957 35.8889 2.80957C36.2756 2.80957 36.6506 2.85645 37.0139 2.9502C37.2893 3.02051 37.6233 3.15234 38.0159 3.3457C38.4143 3.5332 38.6926 3.62695 38.8508 3.62695C39.0032 3.62695 39.1233 3.58008 39.2112 3.48633C39.2991 3.39258 39.3811 3.16699 39.4573 2.80957H39.7209ZM53.2709 3.08203V6.30762H52.9545C52.767 5.56348 52.5589 5.03027 52.3304 4.70801C52.1019 4.37988 51.7884 4.11914 51.39 3.92578C51.1673 3.82031 50.7777 3.76758 50.2211 3.76758H49.3334V12.9609C49.3334 13.5703 49.3656 13.9512 49.43 14.1035C49.5004 14.2559 49.6322 14.3906 49.8255 14.5078C50.0248 14.6191 50.2943 14.6748 50.6341 14.6748H51.0296V15H44.7894V14.6748H45.1849C45.5306 14.6748 45.8089 14.6133 46.0199 14.4902C46.1722 14.4082 46.2923 14.2676 46.3802 14.0684C46.4447 13.9277 46.4769 13.5586 46.4769 12.9609V3.76758H45.6156C44.8129 3.76758 44.2298 3.9375 43.8666 4.27734C43.3568 4.75195 43.0345 5.42871 42.8998 6.30762H42.5658V3.08203H53.2709ZM71.0455 10.8164L70.5973 15H60.0152V14.6748H60.4107C60.7564 14.6748 61.0348 14.6133 61.2457 14.4902C61.398 14.4082 61.5152 14.2676 61.5973 14.0684C61.6617 13.9277 61.6939 13.5586 61.6939 12.9609V5.12109C61.6939 4.51172 61.6617 4.13086 61.5973 3.97852C61.5328 3.82617 61.401 3.69434 61.2018 3.58301C61.0084 3.46582 60.7447 3.40723 60.4107 3.40723H60.0152V3.08203H66.3697V3.40723H65.8512C65.5055 3.40723 65.2271 3.46875 65.0162 3.5918C64.8639 3.67383 64.7438 3.81445 64.6559 4.01367C64.5914 4.1543 64.5592 4.52344 64.5592 5.12109V12.7148C64.5592 13.3242 64.5943 13.7139 64.6646 13.8838C64.735 14.0479 64.8727 14.1709 65.0777 14.2529C65.2242 14.3057 65.5787 14.332 66.1412 14.332H67.1344C67.7672 14.332 68.2945 14.2207 68.7164 13.998C69.1383 13.7754 69.5016 13.4238 69.8063 12.9434C70.1168 12.4629 70.4098 11.7539 70.6852 10.8164H71.0455ZM79.8054 11.6074H75.5954L75.0945 12.7676C74.9304 13.1543 74.8484 13.4736 74.8484 13.7256C74.8484 14.0596 74.9831 14.3057 75.2527 14.4639C75.4109 14.5576 75.8005 14.6279 76.4216 14.6748V15H72.4577V14.6748C72.8855 14.6104 73.237 14.4346 73.5124 14.1475C73.7878 13.8545 74.1277 13.2539 74.532 12.3457L78.7946 2.83594H78.9616L83.2595 12.6094C83.6696 13.5352 84.0066 14.1182 84.2702 14.3584C84.4695 14.54 84.7507 14.6455 85.114 14.6748V15H79.3484V14.6748H79.5857C80.0486 14.6748 80.3737 14.6104 80.5612 14.4814C80.6902 14.3877 80.7546 14.2529 80.7546 14.0771C80.7546 13.9717 80.737 13.8633 80.7019 13.752C80.6902 13.6992 80.6023 13.4795 80.4382 13.0928L79.8054 11.6074ZM79.5066 10.957L77.7312 6.85254L75.903 10.957H79.5066ZM98.3739 2.80957V7.01074H98.0487C97.6561 5.8623 97.0672 4.98926 96.2821 4.3916C95.4969 3.79395 94.6385 3.49512 93.7069 3.49512C92.8163 3.49512 92.075 3.74707 91.4832 4.25098C90.8914 4.74902 90.4725 5.44629 90.2264 6.34277C89.9803 7.23926 89.8573 8.15918 89.8573 9.10254C89.8573 10.2451 89.992 11.2471 90.2616 12.1084C90.5311 12.9697 90.9647 13.6025 91.5623 14.0068C92.1659 14.4111 92.8807 14.6133 93.7069 14.6133C93.994 14.6133 94.287 14.584 94.5858 14.5254C94.8905 14.4609 95.201 14.3701 95.5174 14.2529V11.7744C95.5174 11.3057 95.4852 11.0039 95.4207 10.8691C95.3563 10.7285 95.2215 10.6025 95.0164 10.4912C94.8172 10.3799 94.5741 10.3242 94.287 10.3242H93.9793V9.99902H99.7713V10.3242C99.3319 10.3535 99.0243 10.415 98.8485 10.5088C98.6786 10.5967 98.5467 10.7461 98.453 10.957C98.4002 11.0684 98.3739 11.3408 98.3739 11.7744V14.2529C97.6122 14.5928 96.8182 14.8477 95.992 15.0176C95.1717 15.1934 94.3192 15.2812 93.4344 15.2812C92.3036 15.2812 91.3631 15.1289 90.6131 14.8242C89.869 14.5137 89.2098 14.1094 88.6356 13.6113C88.0672 13.1074 87.6219 12.542 87.2997 11.915C86.8895 11.1064 86.6844 10.2012 86.6844 9.19922C86.6844 7.40625 87.3143 5.8916 88.5741 4.65527C89.8338 3.41895 91.4188 2.80078 93.3289 2.80078C93.9207 2.80078 94.4539 2.84766 94.9286 2.94141C95.1864 2.98828 95.6024 3.12305 96.1766 3.3457C96.7567 3.5625 97.0995 3.6709 97.2049 3.6709C97.369 3.6709 97.5213 3.6123 97.662 3.49512C97.8026 3.37207 97.9315 3.14355 98.0487 2.80957H98.3739ZM107.547 2.91504C109.445 2.84473 110.986 3.39844 112.17 4.57617C113.359 5.75391 113.954 7.22754 113.954 8.99707C113.954 10.5088 113.512 11.8389 112.627 12.9873C111.455 14.5107 109.8 15.2725 107.661 15.2725C105.517 15.2725 103.858 14.5459 102.686 13.0928C101.761 11.9443 101.298 10.582 101.298 9.00586C101.298 7.23633 101.898 5.7627 103.1 4.58496C104.307 3.40137 105.789 2.84473 107.547 2.91504ZM107.652 3.47754C106.562 3.47754 105.733 4.03418 105.165 5.14746C104.702 6.06152 104.471 7.37402 104.471 9.08496C104.471 11.1182 104.828 12.6211 105.543 13.5938C106.041 14.2734 106.738 14.6133 107.635 14.6133C108.238 14.6133 108.742 14.4668 109.146 14.1738C109.662 13.7988 110.063 13.2012 110.351 12.3809C110.638 11.5547 110.781 10.4795 110.781 9.15527C110.781 7.5791 110.635 6.40137 110.342 5.62207C110.049 4.83691 109.674 4.2832 109.217 3.96094C108.766 3.63867 108.244 3.47754 107.652 3.47754ZM122.187 2.91504C124.085 2.84473 125.626 3.39844 126.81 4.57617C127.999 5.75391 128.594 7.22754 128.594 8.99707C128.594 10.5088 128.151 11.8389 127.267 12.9873C126.095 14.5107 124.44 15.2725 122.301 15.2725C120.156 15.2725 118.498 14.5459 117.326 13.0928C116.4 11.9443 115.938 10.582 115.938 9.00586C115.938 7.23633 116.538 5.7627 117.739 4.58496C118.946 3.40137 120.429 2.84473 122.187 2.91504ZM122.292 3.47754C121.202 3.47754 120.373 4.03418 119.805 5.14746C119.342 6.06152 119.11 7.37402 119.11 9.08496C119.11 11.1182 119.468 12.6211 120.183 13.5938C120.681 14.2734 121.378 14.6133 122.274 14.6133C122.878 14.6133 123.382 14.4668 123.786 14.1738C124.302 13.7988 124.703 13.2012 124.99 12.3809C125.277 11.5547 125.421 10.4795 125.421 9.15527C125.421 7.5791 125.274 6.40137 124.982 5.62207C124.689 4.83691 124.314 4.2832 123.857 3.96094C123.405 3.63867 122.884 3.47754 122.292 3.47754ZM134.357 3.08203L140.237 10.4736V5.34961C140.237 4.63477 140.134 4.15137 139.929 3.89941C139.648 3.55957 139.176 3.39551 138.514 3.40723V3.08203H142.451V3.40723C141.947 3.47168 141.608 3.55664 141.432 3.66211C141.262 3.76172 141.127 3.92871 141.028 4.16309C140.934 4.3916 140.887 4.78711 140.887 5.34961V15.2725H140.588L132.529 5.34961V12.9258C132.529 13.6113 132.684 14.0742 132.994 14.3145C133.311 14.5547 133.671 14.6748 134.075 14.6748H134.357V15H130.129V14.6748C130.785 14.6689 131.242 14.5342 131.5 14.2705C131.758 14.0068 131.887 13.5586 131.887 12.9258V4.51465L131.632 4.19824C131.38 3.88184 131.157 3.67383 130.964 3.57422C130.771 3.47461 130.492 3.41895 130.129 3.40723V3.08203H134.357Z" fill="#8A8156"/>
<path d="M28.24 25H33.19V23.8H29.79V21.85H32.87V20.67H29.79V18.95H33.08V17.77H28.24V25ZM41.4633 22.69C41.4733 23.39 41.4933 25.17 44.2633 25.17C46.2633 25.17 47.3433 24.12 47.3433 22.82C47.3433 21.41 46.1133 21.07 44.8633 20.77C43.8233 20.51 43.2933 20.39 43.2933 19.72C43.2933 19.13 43.7633 18.74 44.4833 18.74C45.5533 18.74 45.6333 19.59 45.6533 19.84H47.1433C47.1433 19.6 47.1433 19.02 46.7333 18.5C46.1933 17.82 45.3033 17.65 44.5533 17.65C42.5433 17.65 41.6933 18.7 41.6933 19.89C41.6933 21.14 42.6333 21.65 44.3533 22.08C45.2733 22.3 45.7233 22.41 45.7233 23.05C45.7233 23.66 45.1933 24.06 44.3533 24.06C43.0233 24.06 43.0433 23.03 43.0433 22.69H41.4633ZM57.3779 25H58.9379V18.97H61.0879V17.77H55.2279V18.97H57.3779V25ZM70.4139 17.77L67.8039 25H69.2839L69.8239 23.44H72.6839L73.2039 25H74.7639L72.2539 17.77H70.4139ZM70.2239 22.27L71.2939 19.19L72.2939 22.27H70.2239ZM83.6572 25H85.2172V18.97H87.3672V17.77H81.5072V18.97H83.6572V25ZM95.7205 25H100.67V23.8H97.2705V21.85H100.35V20.67H97.2705V18.95H100.56V17.77H95.7205V25ZM108.944 22.69C108.954 23.39 108.974 25.17 111.744 25.17C113.744 25.17 114.824 24.12 114.824 22.82C114.824 21.41 113.594 21.07 112.344 20.77C111.304 20.51 110.774 20.39 110.774 19.72C110.774 19.13 111.244 18.74 111.964 18.74C113.034 18.74 113.114 19.59 113.134 19.84H114.624C114.624 19.6 114.624 19.02 114.214 18.5C113.674 17.82 112.784 17.65 112.034 17.65C110.024 17.65 109.174 18.7 109.174 19.89C109.174 21.14 110.114 21.65 111.834 22.08C112.754 22.3 113.204 22.41 113.204 23.05C113.204 23.66 112.674 24.06 111.834 24.06C110.504 24.06 110.524 23.03 110.524 22.69H108.944Z" fill="#7D754F"/>
</svg>
